<?xml version="1.0" standalone="no"?>
<!DOCTYPE svg PUBLIC "-//W3C//DTD SVG 20010904//EN"
 "http://www.w3.org/TR/2001/REC-SVG-20010904/DTD/svg10.dtd">
<svg version="1.0" xmlns="http://www.w3.org/2000/svg"
 width="700.000000pt" height="700.000000pt" viewBox="0 0 700.000000 700.000000"
 preserveAspectRatio="xMidYMid meet">
<metadata>
Created by potrace 1.14, written by Peter Selinger 2001-2017
</metadata>
<g transform="translate(0.000000,700.000000) scale(0.100000,-0.100000)"
fill="#000000" stroke="none">
<path d="M3248 6915 c-2 -2 -37 -6 -78 -10 -41 -3 -86 -8 -100 -10 -115 -16
-117 -16 -215 -35 -173 -33 -335 -78 -522 -146 -814 -295 -1482 -886 -1883
-1666 -126 -245 -262 -635 -304 -873 -3 -16 -10 -55 -16 -85 -36 -185 -45
-309 -45 -590 0 -218 8 -397 20 -433 2 -6 6 -35 9 -62 23 -209 129 -602 218
-806 175 -399 311 -620 587 -954 45 -54 336 -340 377 -370 21 -16 44 -34 49
-40 19 -21 204 -155 302 -218 157 -102 295 -175 498 -267 261 -117 672 -228
950 -256 33 -3 89 -10 125 -14 66 -9 561 -6 615 3 17 3 57 8 90 12 71 8 115
14 135 20 8 2 38 7 65 11 28 3 53 8 56 10 3 2 21 6 40 9 19 3 42 8 51 11 9 3
25 6 35 8 119 24 361 103 523 171 162 67 409 199 548 291 21 13 45 30 56 37
64 42 194 141 271 205 135 113 378 361 468 477 4 5 30 39 58 74 166 211 367
569 466 831 28 74 103 297 108 320 2 8 12 51 23 95 33 130 62 287 77 415 4 30
9 66 12 80 9 44 12 563 3 630 -4 36 -11 92 -15 125 -3 33 -8 69 -10 80 -3 11
-7 37 -10 58 -3 21 -12 73 -21 115 -9 42 -18 86 -20 96 -47 243 -211 666 -350
907 -110 190 -263 410 -385 554 -86 100 -347 353 -454 439 -107 86 -334 241
-445 305 -87 50 -327 166 -415 201 -202 81 -457 157 -620 186 -16 2 -37 7 -45
9 -8 2 -33 7 -55 10 -23 3 -50 7 -60 9 -23 4 -109 15 -215 26 -70 7 -545 12
-552 5z"/>
</g>
</svg>
